<svg width="10" height="8" viewBox="0 0 10 8" fill="none" xmlns="http://www.w3.org/2000/svg">
<path d="M8.46075 0.489373C8.62509 0.344946 8.8438 0.265101 9.0707 0.266686C9.29761 0.268271 9.51498 0.351162 9.67694 0.497868C9.8389 0.644574 9.93278 0.843621 9.93878 1.05301C9.94477 1.26239 9.86242 1.46574 9.70908 1.62014L5.05408 6.99399C4.97404 7.07357 4.87743 7.13744 4.77004 7.18177C4.66264 7.2261 4.54667 7.24998 4.42904 7.25199C4.31142 7.25401 4.19456 7.2341 4.08546 7.19347C3.97637 7.15284 3.87726 7.09232 3.79408 7.01553L0.707082 4.16599C0.621114 4.09205 0.552162 4.00288 0.504338 3.9038C0.456514 3.80472 0.430798 3.69777 0.428725 3.58932C0.426652 3.48087 0.448264 3.37315 0.492272 3.27258C0.53628 3.172 0.601782 3.08064 0.684871 3.00395C0.767959 2.92725 0.866932 2.86679 0.975885 2.82616C1.08484 2.78554 1.20154 2.76559 1.31903 2.76751C1.43651 2.76942 1.55238 2.79316 1.65971 2.8373C1.76704 2.88145 1.86364 2.9451 1.94375 3.02445L4.38675 5.27845L8.43858 0.513066C8.44588 0.504775 8.45367 0.496865 8.46191 0.489373H8.46075Z" fill="#F4F4FD"/>
</svg>
